<?xml version="1.0" encoding="UTF-8" ?>
<!DOCTYPE svg PUBLIC "-//W3C//DTD SVG 1.1//EN" "http://www.w3.org/Graphics/SVG/1.1/DTD/svg11.dtd">
<svg width="60pt" height="34pt" viewBox="0 0 60 34" version="1.1" xmlns="http://www.w3.org/2000/svg">
<g id="#fbfbfbfb">
<path fill="#fbfbfb" opacity="1.00" d=" M 43.32 0.00 L 43.78 0.00 C 48.59 5.85 54.65 10.76 59.35 16.74 L 60.00 16.00 L 60.00 17.00 C 54.63 22.72 48.58 28.07 43.62 34.00 L 43.39 34.00 C 42.95 33.56 42.06 32.67 41.62 32.23 C 46.28 27.48 50.96 22.75 55.63 18.02 C 37.09 17.98 18.54 18.01 0.00 18.00 L 0.00 16.00 C 18.54 15.99 37.08 16.02 55.62 15.98 C 50.91 11.21 46.22 6.43 41.49 1.67 C 41.95 1.25 42.86 0.42 43.32 0.00 Z" />
</g>
</svg>
