<?xml version="1.0" encoding="UTF-8" ?>
<!DOCTYPE svg PUBLIC "-//W3C//DTD SVG 1.1//EN" "http://www.w3.org/Graphics/SVG/1.1/DTD/svg11.dtd">
<svg width="60pt" height="34pt" viewBox="0 0 60 34" version="1.1" xmlns="http://www.w3.org/2000/svg">
<g id="#fbfbfbfb">
<path fill="#fbfbfb" opacity="1.00" d=" M 16.52 0.00 L 16.63 0.00 C 17.10 0.44 18.03 1.32 18.50 1.76 C 13.72 6.41 9.10 11.22 4.41 15.97 C 22.94 16.04 41.47 15.98 60.00 16.00 L 60.00 18.00 C 41.46 18.01 22.92 17.98 4.37 18.02 C 9.08 22.75 13.72 27.57 18.48 32.25 C 18.06 32.69 17.21 33.56 16.79 34.00 L 16.79 34.00 C 11.41 28.41 5.65 23.16 0.61 17.27 L 0.00 17.82 L 0.00 16.05 L 0.44 16.86 C 5.46 10.93 11.47 5.89 16.52 0.00 Z" />
</g>
</svg>
