<?xml version="1.0" encoding="UTF-8" ?>
<!DOCTYPE svg PUBLIC "-//W3C//DTD SVG 1.1//EN" "http://www.w3.org/Graphics/SVG/1.1/DTD/svg11.dtd">
<svg width="128pt" height="128pt" viewBox="0 0 128 128" version="1.1" xmlns="http://www.w3.org/2000/svg">
<g id="#010101ff">
<path fill="#010101" opacity="1.00" d=" M 55.71 27.55 C 63.33 27.53 70.95 27.56 78.57 27.54 C 78.62 33.91 78.59 40.28 78.59 46.65 C 87.08 46.70 95.57 46.65 104.06 46.67 C 106.74 50.61 109.49 54.50 112.07 58.50 C 109.36 62.36 106.75 66.30 104.06 70.17 C 95.58 70.17 87.09 70.18 78.61 70.17 C 78.54 78.79 78.67 87.42 78.56 96.05 C 78.53 100.64 74.61 104.82 70.02 105.09 C 65.25 105.30 60.48 105.11 55.71 105.17 C 55.66 97.98 55.78 90.79 55.65 83.60 C 47.18 83.66 38.71 83.60 30.24 83.64 C 27.52 79.74 24.89 75.80 22.21 71.89 C 24.86 67.95 27.53 64.04 30.21 60.13 C 38.71 60.07 47.21 60.22 55.71 60.05 C 55.72 59.24 55.72 57.61 55.73 56.80 C 47.22 56.66 38.72 56.78 30.22 56.74 C 27.53 52.83 24.87 48.91 22.21 44.99 C 24.86 41.06 27.53 37.14 30.21 33.23 C 38.71 33.23 47.20 33.24 55.70 33.23 C 55.70 31.34 55.70 29.45 55.71 27.55 M 60.49 32.34 C 60.50 55.02 60.46 77.71 60.51 100.39 C 63.66 100.33 66.82 100.53 69.96 100.29 C 72.42 99.96 74.07 97.44 73.81 95.05 C 73.81 74.15 73.82 53.24 73.80 32.33 C 69.36 32.33 64.93 32.32 60.49 32.34 M 27.99 44.99 C 29.57 47.32 31.15 49.66 32.79 51.96 C 40.43 51.91 48.07 51.96 55.71 51.92 C 55.70 47.29 55.70 42.66 55.71 38.03 C 48.06 37.99 40.40 38.03 32.75 38.01 C 31.14 40.32 29.56 42.65 27.99 44.99 M 78.59 51.49 C 78.60 56.12 78.58 60.75 78.60 65.39 C 86.30 65.33 94.01 65.52 101.70 65.29 C 103.18 62.95 104.76 60.68 106.28 58.38 C 104.70 56.09 103.13 53.78 101.55 51.48 C 93.90 51.47 86.24 51.45 78.59 51.49 M 27.99 71.88 C 29.53 74.14 31.10 76.38 32.53 78.71 C 40.25 79.01 47.98 78.77 55.71 78.83 C 55.70 74.19 55.71 69.55 55.70 64.92 C 48.06 64.89 40.43 64.94 32.79 64.89 C 31.14 67.19 29.57 69.54 27.99 71.88 Z" />
</g>
</svg>
