<?xml version="1.0" encoding="UTF-8" ?>
<!DOCTYPE svg PUBLIC "-//W3C//DTD SVG 1.1//EN" "http://www.w3.org/Graphics/SVG/1.1/DTD/svg11.dtd">
<svg width="128pt" height="128pt" viewBox="0 0 128 128" version="1.1" xmlns="http://www.w3.org/2000/svg">
<g id="#010101ff">
<path fill="#010101" opacity="1.00" d=" M 34.85 43.86 C 40.59 30.55 55.77 22.21 70.09 24.70 C 85.28 26.80 97.69 40.71 98.01 56.05 C 98.84 71.18 87.90 85.69 73.26 89.39 C 71.12 94.91 69.34 100.58 67.05 106.04 C 66.51 107.81 63.49 107.82 62.96 106.04 C 60.62 100.56 58.71 94.91 56.52 89.36 C 49.06 87.19 42.29 82.58 37.90 76.12 C 31.34 66.87 30.10 54.17 34.85 43.86 M 52.94 31.82 C 43.66 36.13 37.15 45.81 36.80 56.06 C 36.06 68.27 44.32 80.38 55.99 84.06 C 57.34 84.64 59.01 84.71 60.11 85.76 C 61.99 89.60 63.20 93.72 64.73 97.71 C 67.06 94.00 67.64 89.52 69.70 85.68 C 70.73 84.96 72.01 84.75 73.18 84.33 C 82.59 81.67 90.10 73.58 92.42 64.13 C 95.21 53.45 90.92 41.43 82.07 34.86 C 73.93 28.52 62.22 27.32 52.94 31.82 Z" />
<path fill="#010101" opacity="1.00" d=" M 46.96 38.89 C 55.62 38.89 64.29 38.89 72.95 38.90 C 72.96 43.19 72.95 47.48 72.96 51.78 C 76.97 51.78 80.98 51.78 84.98 51.78 C 84.93 57.56 85.09 63.33 84.94 69.10 C 84.98 72.18 82.07 74.73 79.04 74.48 C 68.35 74.54 57.65 74.48 46.96 74.50 C 46.95 62.63 46.95 50.76 46.96 38.89 M 51.74 43.68 C 51.74 52.36 51.73 61.04 51.75 69.72 C 57.22 69.72 62.69 69.72 68.16 69.71 C 68.17 61.04 68.17 52.36 68.16 43.68 C 62.69 43.67 57.22 43.67 51.74 43.68 M 72.96 56.58 C 72.95 60.96 72.95 65.34 72.96 69.72 C 75.35 69.72 77.74 69.70 80.13 69.68 C 80.25 65.31 80.19 60.95 80.20 56.58 C 77.78 56.58 75.37 56.58 72.96 56.58 Z" />
<path fill="#010101" opacity="1.00" d=" M 54.25 46.81 C 55.84 46.83 57.43 46.82 59.03 46.81 C 59.03 48.14 59.03 49.47 59.03 50.80 C 57.43 50.79 55.84 50.79 54.25 50.80 C 54.25 49.47 54.25 48.14 54.25 46.81 Z" />
<path fill="#010101" opacity="1.00" d=" M 60.88 46.78 C 62.48 46.85 64.09 46.86 65.69 46.85 C 65.68 48.17 65.66 49.48 65.65 50.80 C 64.06 50.79 62.47 50.79 60.88 50.80 C 60.88 49.46 60.88 48.12 60.88 46.78 Z" />
<path fill="#010101" opacity="1.00" d=" M 54.25 54.76 C 55.84 54.78 57.43 54.78 59.03 54.76 C 59.03 56.09 59.03 57.42 59.03 58.76 C 57.43 58.74 55.84 58.74 54.25 58.76 C 54.25 57.42 54.25 56.09 54.25 54.76 Z" />
<path fill="#010101" opacity="1.00" d=" M 60.88 54.77 C 62.47 54.77 64.05 54.77 65.64 54.75 C 65.64 56.09 65.65 57.42 65.67 58.75 C 64.07 58.74 62.48 58.74 60.88 58.76 C 60.88 57.43 60.88 56.10 60.88 54.77 Z" />
<path fill="#010101" opacity="1.00" d=" M 54.25 62.73 C 55.84 62.75 57.43 62.75 59.03 62.73 C 59.03 64.06 59.03 65.38 59.03 66.71 C 57.43 66.69 55.84 66.69 54.25 66.71 C 54.25 65.38 54.25 64.06 54.25 62.73 Z" />
<path fill="#010101" opacity="1.00" d=" M 60.88 62.74 C 62.47 62.74 64.06 62.74 65.65 62.72 C 65.65 64.05 65.65 65.38 65.67 66.71 C 64.07 66.69 62.47 66.69 60.88 66.71 C 60.88 65.39 60.88 64.06 60.88 62.74 Z" />
</g>
</svg>
