<?xml version="1.0" encoding="UTF-8" ?>
<!DOCTYPE svg PUBLIC "-//W3C//DTD SVG 1.1//EN" "http://www.w3.org/Graphics/SVG/1.1/DTD/svg11.dtd">
<svg width="128pt" height="128pt" viewBox="0 0 128 128" version="1.1" xmlns="http://www.w3.org/2000/svg">
<g id="#010101ff">
<path fill="#010101" opacity="1.00" d=" M 42.52 30.96 C 42.01 29.01 43.97 26.93 45.91 27.99 C 62.30 34.57 78.61 41.36 94.99 47.97 C 96.29 48.51 98.14 49.16 98.01 50.93 C 98.05 52.53 96.40 53.07 95.16 53.46 C 79.20 58.07 63.25 62.74 47.29 67.37 C 47.27 79.12 47.29 90.87 47.28 102.61 C 45.69 102.59 44.09 102.59 42.50 102.62 C 42.51 78.73 42.47 54.85 42.52 30.96 M 47.29 33.68 C 47.28 43.26 47.27 52.83 47.30 62.40 C 60.97 58.41 74.64 54.44 88.31 50.46 C 74.65 44.84 60.97 39.26 47.29 33.68 Z" />
</g>
</svg>
