<?xml version="1.0" encoding="UTF-8" ?>
<!DOCTYPE svg PUBLIC "-//W3C//DTD SVG 1.1//EN" "http://www.w3.org/Graphics/SVG/1.1/DTD/svg11.dtd">
<svg width="128pt" height="128pt" viewBox="0 0 128 128" version="1.1" xmlns="http://www.w3.org/2000/svg">
<g id="#010101ff">
<path fill="#010101" opacity="1.00" d=" M 57.49 25.72 C 75.40 21.71 94.97 32.26 101.65 49.30 C 105.64 58.88 105.58 70.06 101.46 79.59 C 97.61 88.69 90.19 96.20 81.14 100.17 C 71.05 104.69 59.02 104.60 48.99 99.95 C 39.67 95.71 32.16 87.69 28.57 78.11 C 24.65 67.90 25.30 56.06 30.34 46.35 C 35.66 35.84 45.93 28.01 57.49 25.72 M 63.25 29.76 C 60.40 34.18 58.24 39.01 56.73 44.05 C 62.02 44.57 67.34 44.59 72.63 44.10 C 71.09 39.03 68.94 34.14 66.03 29.70 C 65.34 29.72 63.94 29.75 63.25 29.76 M 40.64 40.35 C 44.32 41.65 48.10 42.65 51.94 43.37 C 53.23 38.98 54.98 34.74 57.05 30.66 C 50.90 32.41 44.86 35.43 40.64 40.35 M 72.10 30.29 C 74.26 34.51 76.04 38.92 77.44 43.45 C 81.68 42.61 85.87 41.53 89.91 39.98 C 85.05 35.12 78.80 31.80 72.10 30.29 M 37.20 44.12 C 33.60 49.35 31.37 55.48 30.85 61.82 C 36.94 61.84 43.03 61.83 49.12 61.83 C 49.34 57.20 49.87 52.58 50.78 48.04 C 46.15 47.11 41.60 45.84 37.20 44.12 M 78.56 48.09 C 79.44 52.62 79.98 57.22 80.19 61.83 C 86.69 61.85 93.20 61.76 99.70 61.89 C 99.37 55.37 96.93 49.11 93.17 43.81 C 88.46 45.72 83.56 47.14 78.56 48.09 M 53.92 61.82 C 61.08 61.83 68.24 61.83 75.40 61.83 C 75.20 57.44 74.69 53.09 73.83 48.79 C 67.74 49.40 61.61 49.40 55.53 48.74 C 54.64 53.05 54.11 57.42 53.92 61.82 M 30.85 66.64 C 31.37 73.05 33.68 79.19 37.29 84.49 C 41.67 82.89 46.14 81.48 50.76 80.73 C 49.93 76.07 49.33 71.37 49.12 66.63 C 43.03 66.63 36.94 66.62 30.85 66.64 M 53.92 66.63 C 54.09 71.08 54.72 75.48 55.45 79.86 C 61.56 79.41 67.69 79.25 73.79 79.90 C 74.66 75.52 75.20 71.09 75.40 66.64 C 68.24 66.62 61.08 66.62 53.92 66.63 M 80.19 66.63 C 79.97 71.31 79.46 75.98 78.51 80.57 C 83.47 81.56 88.36 82.91 93.03 84.83 C 96.92 79.53 99.22 73.18 99.80 66.64 C 93.26 66.62 86.72 66.62 80.19 66.63 M 56.97 84.51 C 58.03 89.62 60.53 94.30 63.29 98.69 C 63.95 98.71 65.26 98.76 65.92 98.79 C 68.91 94.46 70.98 89.58 72.57 84.59 C 67.38 84.05 62.16 84.21 56.97 84.51 M 40.64 88.33 C 45.12 92.93 50.87 96.11 57.04 97.82 C 55.04 93.78 53.28 89.63 51.98 85.31 C 48.13 86.05 44.33 87.02 40.64 88.33 M 77.28 85.31 C 76.05 89.78 74.19 94.03 72.06 98.13 C 78.68 96.66 84.93 93.45 89.70 88.60 C 85.67 87.13 81.53 85.95 77.28 85.31 Z" />
</g>
</svg>
