<?xml version="1.0" encoding="UTF-8" ?>
<!DOCTYPE svg PUBLIC "-//W3C//DTD SVG 1.1//EN" "http://www.w3.org/Graphics/SVG/1.1/DTD/svg11.dtd">
<svg width="128pt" height="128pt" viewBox="0 0 128 128" version="1.1" xmlns="http://www.w3.org/2000/svg">
<g id="#010101ff">
<path fill="#010101" opacity="1.00" d=" M 62.64 32.67 C 63.72 31.67 65.11 32.09 66.17 32.87 C 78.82 41.03 91.44 49.24 104.09 57.40 C 103.24 58.74 102.39 60.08 101.54 61.43 C 99.15 59.91 96.78 58.37 94.39 56.85 C 94.44 68.32 94.28 79.79 94.48 91.25 C 97.36 91.21 100.24 91.20 103.12 91.22 C 103.12 92.81 103.12 94.40 103.13 95.99 C 77.52 96.00 51.92 96.02 26.31 95.98 C 26.32 94.39 26.33 92.81 26.33 91.22 C 28.90 91.22 31.47 91.21 34.03 91.21 C 34.05 79.76 34.05 68.31 34.03 56.87 C 31.67 58.38 29.31 59.90 26.95 61.42 C 26.07 60.10 25.20 58.78 24.32 57.47 C 37.06 49.15 49.84 40.89 62.64 32.67 M 38.83 53.77 C 38.84 66.25 38.82 78.73 38.84 91.21 C 44.29 91.22 49.73 91.22 55.17 91.21 C 55.22 82.78 55.13 74.35 55.21 65.92 C 54.97 64.38 56.39 63.01 57.92 63.25 C 62.63 63.21 67.34 63.19 72.05 63.26 C 73.56 63.04 74.83 64.51 74.62 65.97 C 74.70 74.38 74.61 82.80 74.65 91.21 C 79.59 91.25 84.53 91.15 89.46 91.29 C 89.78 78.76 89.55 66.22 89.58 53.70 C 81.10 48.27 72.68 42.76 64.21 37.32 C 55.75 42.81 47.27 48.25 38.83 53.77 M 59.98 68.02 C 59.97 75.75 59.97 83.48 59.98 91.21 C 63.27 91.22 66.56 91.22 69.86 91.21 C 69.86 83.48 69.86 75.75 69.86 68.02 C 66.57 68.01 63.27 68.01 59.98 68.02 Z" />
</g>
</svg>
