<?xml version="1.0" encoding="UTF-8" ?>
<!DOCTYPE svg PUBLIC "-//W3C//DTD SVG 1.1//EN" "http://www.w3.org/Graphics/SVG/1.1/DTD/svg11.dtd">
<svg width="128pt" height="128pt" viewBox="0 0 128 128" version="1.1" xmlns="http://www.w3.org/2000/svg">
<g id="#010101ff">
<path fill="#010101" opacity="1.00" d=" M 57.04 44.94 C 58.28 35.40 67.42 27.75 77.05 28.29 C 86.29 28.39 94.66 35.94 95.83 45.09 C 96.93 51.45 93.23 57.17 90.07 62.33 C 92.52 62.33 94.97 62.32 97.42 62.32 C 99.14 71.55 100.99 80.75 102.65 89.98 C 103.55 95.40 98.43 100.51 93.07 100.18 C 69.92 100.23 46.77 100.19 23.63 100.20 C 25.52 87.57 27.43 74.95 29.33 62.33 C 40.48 62.33 51.63 62.31 62.78 62.34 C 59.58 57.14 55.84 51.35 57.04 44.94 M 62.42 51.66 C 65.59 59.27 71.09 65.60 76.42 71.79 C 81.80 65.54 87.36 59.14 90.51 51.41 C 93.76 42.46 85.30 32.43 76.04 33.06 C 66.97 32.94 59.03 42.94 62.42 51.66 M 33.45 67.11 C 32.27 76.78 29.95 86.34 29.57 96.07 C 36.28 88.81 42.50 81.12 49.01 73.68 C 43.82 71.49 38.64 69.30 33.45 67.11 M 45.79 67.12 C 60.23 73.26 74.70 79.35 89.15 85.48 C 91.44 83.82 93.74 82.18 96.02 80.52 C 95.18 76.05 94.32 71.58 93.47 67.11 C 91.17 67.12 88.87 67.12 86.56 67.12 C 83.41 71.18 80.00 75.04 76.42 78.73 C 72.83 75.04 69.43 71.16 66.25 67.11 C 59.43 67.11 52.61 67.10 45.79 67.12 M 36.67 95.41 C 49.54 95.33 62.42 95.61 75.27 95.29 C 78.63 93.50 81.45 90.87 84.61 88.76 C 74.29 84.39 63.97 80.01 53.64 75.64 C 47.98 82.23 42.32 88.81 36.67 95.41 M 83.60 95.41 C 87.61 95.12 91.88 96.13 95.74 94.78 C 99.16 92.91 97.64 88.69 97.03 85.72 C 92.54 88.93 88.07 92.18 83.60 95.41 Z" />
<path fill="#010101" opacity="1.00" d=" M 73.35 37.51 C 80.63 34.89 88.66 42.39 86.55 49.84 C 85.12 57.51 74.43 60.62 69.12 54.88 C 63.48 49.82 66.02 39.43 73.35 37.51 M 74.26 42.26 C 70.61 43.61 69.58 48.91 72.50 51.50 C 75.35 54.55 81.04 52.91 81.88 48.84 C 83.18 44.57 78.29 40.34 74.26 42.26 Z" />
</g>
</svg>
