<?xml version="1.0" encoding="UTF-8" ?>
<!DOCTYPE svg PUBLIC "-//W3C//DTD SVG 1.1//EN" "http://www.w3.org/Graphics/SVG/1.1/DTD/svg11.dtd">
<svg width="128pt" height="128pt" viewBox="0 0 128 128" version="1.1" xmlns="http://www.w3.org/2000/svg">
<g id="#010101ff">
<path fill="#010101" opacity="1.00" d=" M 27.49 26.38 C 44.73 26.37 61.98 26.36 79.22 26.39 C 79.22 36.67 79.21 46.96 79.22 57.24 C 88.10 57.26 96.97 57.24 105.84 57.25 C 105.83 68.86 105.88 80.47 105.83 92.08 C 106.06 97.29 101.33 101.96 96.12 101.69 C 73.24 101.74 50.36 101.72 27.49 101.71 C 27.48 76.60 27.48 51.49 27.49 26.38 M 32.27 31.16 C 32.27 53.08 32.27 75.00 32.26 96.92 C 46.32 96.93 60.38 96.92 74.43 96.92 C 74.44 75.00 74.44 53.08 74.43 31.16 C 60.38 31.16 46.32 31.15 32.27 31.16 M 79.23 62.04 C 79.24 73.66 79.24 85.29 79.23 96.92 C 84.84 96.89 90.45 96.99 96.06 96.90 C 98.71 97.14 101.21 94.82 101.03 92.13 C 101.11 82.10 101.03 72.07 101.06 62.04 C 93.78 62.03 86.51 62.03 79.23 62.04 Z" />
<path fill="#010101" opacity="1.00" d=" M 43.62 43.35 C 45.22 43.36 46.81 43.35 48.41 43.34 C 48.41 46.28 48.41 49.22 48.40 52.15 C 46.81 52.15 45.22 52.15 43.63 52.15 C 43.62 49.22 43.62 46.28 43.62 43.35 Z" />
<path fill="#010101" opacity="1.00" d=" M 58.30 43.34 C 59.89 43.34 61.48 43.34 63.07 43.34 C 63.08 46.28 63.08 49.22 63.07 52.15 C 61.48 52.15 59.89 52.15 58.30 52.16 C 58.29 49.22 58.29 46.28 58.30 43.34 Z" />
<path fill="#010101" opacity="1.00" d=" M 43.63 60.96 C 45.22 60.96 46.81 60.96 48.40 60.96 C 48.41 63.89 48.41 66.83 48.40 69.77 C 46.81 69.77 45.22 69.77 43.63 69.77 C 43.62 66.83 43.62 63.89 43.63 60.96 Z" />
<path fill="#010101" opacity="1.00" d=" M 58.30 60.96 C 59.89 60.96 61.48 60.96 63.07 60.95 C 63.08 63.89 63.08 66.83 63.07 69.77 C 61.48 69.76 59.89 69.76 58.30 69.77 C 58.29 66.83 58.29 63.89 58.30 60.96 Z" />
<path fill="#010101" opacity="1.00" d=" M 85.64 71.11 C 88.76 71.10 91.88 71.10 95.00 71.11 C 94.99 72.70 94.99 74.30 95.00 75.89 C 91.88 75.90 88.76 75.90 85.64 75.89 C 85.64 74.29 85.64 72.70 85.64 71.11 Z" />
<path fill="#010101" opacity="1.00" d=" M 43.63 78.57 C 45.22 78.56 46.81 78.56 48.40 78.56 C 48.41 81.50 48.41 84.44 48.40 87.37 C 46.81 87.37 45.22 87.37 43.63 87.37 C 43.62 84.44 43.62 81.50 43.63 78.57 Z" />
<path fill="#010101" opacity="1.00" d=" M 58.30 78.56 C 59.89 78.57 61.48 78.57 63.07 78.56 C 63.08 81.50 63.08 84.44 63.07 87.37 C 61.48 87.37 59.89 87.37 58.30 87.37 C 58.29 84.44 58.29 81.50 58.30 78.56 Z" />
<path fill="#010101" opacity="1.00" d=" M 85.65 82.85 C 88.76 82.84 91.88 82.84 95.00 82.85 C 94.99 84.44 94.99 86.03 94.99 87.63 C 91.87 87.64 88.75 87.63 85.63 87.62 C 85.64 86.03 85.64 84.44 85.65 82.85 Z" />
</g>
</svg>
