<?xml version="1.0" encoding="UTF-8" ?>
<!DOCTYPE svg PUBLIC "-//W3C//DTD SVG 1.1//EN" "http://www.w3.org/Graphics/SVG/1.1/DTD/svg11.dtd">
<svg width="128pt" height="128pt" viewBox="0 0 128 128" version="1.1" xmlns="http://www.w3.org/2000/svg">
<g id="#010101ff">
<path fill="#010101" opacity="1.00" d=" M 59.92 24.88 C 67.42 23.29 75.20 25.05 81.83 28.70 C 80.98 30.03 80.14 31.36 79.30 32.69 C 76.68 31.55 74.06 30.34 71.27 29.69 C 63.34 27.88 54.63 30.17 48.59 35.60 C 43.08 40.43 39.76 47.66 39.83 55.00 C 39.71 64.04 44.84 72.87 52.64 77.40 C 55.34 78.97 58.34 79.88 61.28 80.87 C 62.69 84.38 64.08 87.91 65.60 91.38 C 67.23 87.98 68.61 84.48 69.93 80.96 C 74.21 79.55 78.63 78.11 82.10 75.12 C 88.53 69.91 92.21 61.54 91.62 53.28 C 91.44 49.16 89.86 45.30 88.12 41.63 C 79.33 50.27 70.84 59.22 62.18 67.99 C 58.29 62.74 54.43 57.47 50.63 52.16 C 51.86 51.24 53.10 50.33 54.34 49.41 C 57.17 53.10 59.92 56.84 62.74 60.53 C 72.88 50.31 82.84 39.90 93.00 29.69 C 94.11 30.78 95.21 31.87 96.31 32.96 C 94.72 34.64 93.12 36.32 91.53 38.00 C 93.67 42.08 95.70 46.35 96.19 50.99 C 97.62 61.19 93.43 71.90 85.54 78.49 C 82.11 81.51 77.88 83.34 73.63 84.85 C 72.81 86.84 72.01 88.83 71.21 90.83 C 76.61 91.62 82.42 91.88 87.15 94.89 C 89.22 96.13 90.59 98.94 89.19 101.17 C 87.14 104.20 83.28 105.15 79.93 105.98 C 71.27 107.72 62.28 107.75 53.57 106.38 C 49.84 105.64 45.76 104.84 42.96 102.07 C 40.89 100.03 41.67 96.43 44.10 95.05 C 48.82 91.94 54.68 91.66 60.10 90.82 C 59.28 88.79 58.44 86.77 57.59 84.76 C 53.34 83.23 49.12 81.35 45.73 78.29 C 36.99 70.84 32.92 58.28 36.06 47.17 C 38.91 36.00 48.57 26.94 59.92 24.88 M 46.33 99.01 C 52.70 102.11 59.89 102.63 66.87 102.57 C 73.05 102.47 79.41 101.89 85.00 99.02 C 80.20 96.74 74.91 95.98 69.66 95.54 C 68.97 97.33 68.29 99.13 67.60 100.92 C 66.43 101.05 65.27 101.17 64.10 101.29 C 63.37 99.41 62.65 97.52 61.93 95.63 C 56.59 95.94 51.21 96.71 46.33 99.01 Z" />
</g>
</svg>
